#N canvas 196 332 1236 627 12;
#X obj 132 43 im.makeymakey, f 59;
#X obj 30 43 im.microphone;
#X obj 28 225 im.speaker;
#X obj 30 112 im.oneshot ../authenticity.wav;
#X obj 654 308 cnv 15 550 80 empty empty inputs 25 15 0 30 -203904
-66577 0;
#X obj 660 343 im.microphone;
#X obj 659 366 im.makeymakey;
#X obj 653 400 cnv 15 550 90 empty empty samplers 25 15 0 20 -262130
-66577 0;
#X obj 661 452 im.oneshot;
#X obj 654 498 cnv 15 550 100 empty empty outputs 25 15 0 30 -203904
-66577 0;
#X obj 669 563 im.speaker;
#X text 760 345 take audio from the microphone;
#X text 760 367 a set of keypresses for easy access to makey makey
, f 51;
#X text 744 453 record and play a sound file;
#X text 749 564 a mono output;
#X text 11 589 Press cmd-1 to create a new object;
#X text 140 65 Up;
#X text 246 66 Down;
#X text 347 66 Left;
#X text 453 65 Right;
#X text 553 64 Space;
#X text 652 283 Objects used:;
#X connect 0 0 3 1;
#X connect 0 1 3 2;
#X connect 1 0 3 0;
#X connect 3 0 2 0;
